<?xml version="1.0" encoding="UTF-8" standalone="no"?>
<svg
   width="512"
   height="512"
   version="1.1"
   viewBox="0 0 135.47 135.47"
   id="svg18"
   sodipodi:docname="rain_logo_vertical_white_background.svg"
   inkscape:version="1.3 (0e150ed, 2023-07-21)"
   xmlns:inkscape="http://www.inkscape.org/namespaces/inkscape"
   xmlns:sodipodi="http://sodipodi.sourceforge.net/DTD/sodipodi-0.dtd"
   xmlns="http://www.w3.org/2000/svg"
   xmlns:svg="http://www.w3.org/2000/svg">
  <sodipodi:namedview
     id="namedview18"
     pagecolor="#ffffff"
     bordercolor="#000000"
     borderopacity="0.25"
     inkscape:showpageshadow="2"
     inkscape:pageopacity="0.0"
     inkscape:pagecheckerboard="0"
     inkscape:deskcolor="#d1d1d1"
     inkscape:zoom="1.3265126"
     inkscape:cx="107.42454"
     inkscape:cy="376.92821"
     inkscape:window-width="1800"
     inkscape:window-height="1097"
     inkscape:window-x="0"
     inkscape:window-y="44"
     inkscape:window-maximized="1"
     inkscape:current-layer="svg18" />
  <defs
     id="defs10">
    <clipPath
       id="clipPath19">
      <path
         transform="translate(-354.42,-440.12)"
         d="m0 612h792v-612h-792z"
         id="path1" />
    </clipPath>
    <clipPath
       id="clipPath17">
      <path
         transform="translate(-396,-507.66)"
         d="m0 612h792v-612h-792z"
         id="path2" />
    </clipPath>
    <clipPath
       id="clipPath15">
      <path
         transform="translate(-516.24,-282.04)"
         d="m0 612h792v-612h-792z"
         id="path3" />
    </clipPath>
    <clipPath
       id="clipPath13">
      <path
         transform="translate(-489.58,-204.77)"
         d="m0 612h792v-612h-792z"
         id="path4" />
    </clipPath>
    <clipPath
       id="clipPath11">
      <path
         d="m0 612h792v-612h-792z"
         id="path5" />
    </clipPath>
    <clipPath
       id="clipPath9">
      <path
         transform="translate(-384.45,-204.77)"
         d="m0 612h792v-612h-792z"
         id="path6" />
    </clipPath>
    <clipPath
       id="clipPath7">
      <path
         transform="translate(-314.42,-204.77)"
         d="m0 612h792v-612h-792z"
         id="path7" />
    </clipPath>
    <clipPath
       id="clipPath5">
      <path
         transform="translate(-281.21,-136.2)"
         d="m0 612h792v-612h-792z"
         id="path8" />
    </clipPath>
    <linearGradient
       id="linearGradient3"
       x2="1"
       gradientTransform="matrix(-5.3975e-6,67.734,-67.734,-5.3975e-6,60.383,79.11)"
       gradientUnits="userSpaceOnUse">
      <stop
         stop-color="#00adef"
         offset="0"
         id="stop8" />
      <stop
         stop-color="#00adef"
         offset=".58496"
         id="stop9" />
      <stop
         stop-color="#10427a"
         offset="1"
         id="stop10" />
    </linearGradient>
  </defs>
  <rect
     x=".037571"
     y=".037567"
     width="135.39"
     height="135.39"
     ry="23.77"
     fill="#fff"
     fill-rule="evenodd"
     stroke="#5d005b"
     stroke-width=".075142"
     id="rect10"
     style="stroke:none;stroke-width:0;stroke-dasharray:none;opacity:1" />
  <g
     transform="matrix(.93315 0 0 .93315 10.125 -68.601)"
     id="g18">
    <path
       d="m35.923 95.07c-12.642 1.9974-22.429 13.103-22.429 26.204 0 14.625 11.898 26.523 26.524 26.523h45.331c12.089 0 21.924-9.8407 21.924-21.937 0-9.5934-6.192-17.879-14.977-20.81-1.342-15.111-14.072-26.998-29.526-26.998-11.629 0-22.031 6.7148-26.846 17.018"
       fill="url(#linearGradient3)"
       id="path10" />
    <g
       fill="#10427a"
       id="g16">
      <path
         transform="matrix(.35278 0 0 -.35278 22.273 214.15)"
         d="m0 0h4.365v39.636h6.901c3.421 0 6.96 0 9.85-2.064 2.477-1.711 4.069-4.778 4.069-7.786 0-3.892-2.064-7.196-5.662-8.847-2.89-1.297-6.429-1.18-9.496-1.18h-1.298l14.805-19.759h5.426l-12.268 16.279c7.078 0.177 12.858 5.957 12.858 13.094 0 5.073-2.359 9.555-6.783 12.092-3.657 2.064-8.257 2.123-12.386 2.123h-10.381zm71.191 0h4.365v19.937h17.105v3.951h-17.105v15.748h17.754v3.952h-22.119zm63.995 0h4.365v43.588h-4.365zm48.72 0h12.032c6.724 0 12.445 0.944 17.636 5.662 4.483 4.129 7.137 9.968 7.137 16.22 0 6.312-3.008 12.564-7.963 16.635-5.013 4.009-10.853 5.012-17.105 5.071h-11.737zm4.364 3.952v35.684h5.604c5.78 0.059 10.912-0.236 15.689-3.951 4.483-3.539 6.724-8.14 6.783-13.803-0.059-5.544-2.359-10.498-6.724-13.919-4.836-3.834-9.968-3.952-15.748-4.011z"
         clip-path="url(#clipPath5)"
         id="path11" />
      <path
         transform="matrix(.35278 0 0 -.35278 33.988 189.96)"
         d="m0 0-11.516 25.721-9.679-0.021-0.024 17.918 9.703 0.011c6.752 0.855 10.702 5.174 10.702 11.916 0 3.369-1.425 11.207-14.618 11.207h-9.558l0.024-66.752h-17.718v81.861h30.128c9.36 0 16.602-2.247 21.523-6.679 5.518-4.991 8.203-11.175 8.203-18.9 0-7.774-5.19-18.521-12.121-23.957l13.316-32.325z"
         clip-path="url(#clipPath7)"
         id="path12" />
      <path
         transform="matrix(.35278 0 0 -.35278 58.696 189.96)"
         d="m0 0v52.469c0 4.563-0.624 7.706-1.965 9.892-0.995 1.618-3.426 4.327-8.571 4.327-3.33 0-11.073-1.387-11.073-14.219l0.064-13.415h17.697l-0.031-17.921-17.73-0.02v-21.113h-17.718v53.338c0 10.042 2.564 17.524 7.839 22.874 5.254 5.332 12.609 7.923 22.491 7.923 9.266 0 16.081-2.327 20.251-6.915 4.291-4.719 6.467-12.44 6.467-22.947v-54.273z"
         clip-path="url(#clipPath9)"
         id="path13" />
      <path
         transform="matrix(.35278 0 0 -.35278 -76.93 262.2)"
         d="m417.8 286.64h17.718v-81.862h-17.718z"
         clip-path="url(#clipPath11)"
         id="path14" />
      <path
         transform="matrix(.35278 0 0 -.35278 95.781 189.96)"
         d="m0 0v53.607c0 12.137-8.166 13.081-10.67 13.081-2.456 0-10.471-0.944-10.471-13.081v-53.607h-17.717v54.543c0 9.173 2.601 16.244 7.956 21.617 5.346 5.366 12.381 7.975 21.503 7.975 8.983 0 15.57-2.464 20.137-7.533 4.633-5.146 6.983-12.883 6.983-22.995v-53.607z"
         clip-path="url(#clipPath13)"
         id="path15" />
      <path
         transform="matrix(.35278 0 0 -.35278 105.19 162.71)"
         d="m0 0v8.133h3.117v1.418h-7.804v-1.418h3.093v-8.133zm5.648 0v8.133l2.567-8.133h1.441l2.461 8.017v-8.017h1.453v9.551h-2.297l-2.332-7.629-2.414 7.629h-2.343v-9.551z"
         clip-path="url(#clipPath15)"
         id="path16" />
    </g>
    <path
       transform="matrix(.35278 0 0 -.35278 62.768 83.109)"
       d="m0 0c-30.589 0-56.74-19.518-66.057-47.352-32.833-0.834-59.283-27.8-59.283-60.83 0-33.552 27.298-60.848 60.85-60.848h80.618c-5.796 4.101-9.722 8.709-14.318 15.602h-66.3c-24.992 0-45.248 20.258-45.248 45.246 0 24.99 20.256 45.246 45.248 45.246 3.678 0 7.252-0.45 10.676-1.278 2.747 27.3 25.791 48.612 53.814 48.612 29.872 0 54.088-24.216 54.088-54.088 0-8.21-1.065-16.662-1.948-19.668 2.832 0.53 6.418 0.656 11.824 0.422 17.816-0.772 32.248-14.438 32.248-32.246 0-17.81-14.436-32.246-32.248-32.246h-15.252c-7.256 0-15.736 4.638-20.576 10.872l-0.048-0.032-15.776 20.93c13.092 3.106 22.944 14.94 22.944 28.774 0 11.666-5.56 21.546-15.28 27.12-8.296 4.68-18.352 4.68-26.434 4.68h-5.148c-0.097 2e-3 -0.185 0.028-0.281 0.028-4.266 0-7.719-3.454-7.719-7.716 0-4.264 3.453-7.718 7.719-7.718 0.041 0 0.084 0.012 0.131 0.016h7.068c6.612 0 12.852 0.768 17.8-2.768 4.008-2.764 6.7-7.918 6.7-12.816 0-6.58-3.416-11.918-9.352-14.64-4.26-1.914-9.616-2.076-14.739-2.076l-5.484 8e-3c-1.27 0-2.431-0.72-3.003-1.858-0.567-1.134-0.444-2.496 0.318-3.512l29.624-39.538c8.595-9.668 20.422-15.356 33.345-15.356h13.485c26.384 0 47.81 21.464 47.81 47.848 0 24.486-18.484 44.732-42.236 47.52 0.076 1.318 0.112 2.64 0.112 3.972 0 38.426-31.264 69.69-69.692 69.69"
       clip-path="url(#clipPath17)"
       fill="#fff"
       id="path17" />
    <path
       transform="matrix(.35278 0 0 -.35278 48.101 106.94)"
       d="m0 0 0.042-77.233 0.014 4.096c0-3.644 3.458-6.596 7.728-6.596 4.271 0 7.712 2.952 7.712 6.596l-0.02 73.137h-0.018c0 3.644-3.458 6.598-7.732 6.598-4.27 0-7.726-2.954-7.726-6.598"
       clip-path="url(#clipPath19)"
       fill="#fff"
       id="path18" />
  </g>
</svg>
